<svg version="1.2" xmlns="http://www.w3.org/2000/svg" viewBox="0 0 200 200" width="200" height="200">
	<title>exemplo</title>
	<style>
		.s0 { fill: #080808 } 
		.s1 { fill: #ab84bb } 
		.s2 { fill: #861264 } 
		.s3 { fill: #1a7131 } 
		.s4 { fill: #ffffff } 
		.s5 { fill: #eaf452 } 
	</style>
	<g id="Forma 4">
		<path id="Path 0" class="s0" d="m56 99h17v32.5h-17v-16.3z"/>
		<path id="Path 1" class="s1" d="m32 83.5l66-0.5v49h-25v-33h-17v33h-24v-24.3z"/>
		<path id="Path 3" class="s2" d="m65.6 34.3c0.6 0.7 9 11.7 18.7 24.5 9.8 12.7 17.6 23.4 17.5 23.6-0.2 0.3-16.8 0.7-37 1-30.6 0.5-36.8 0.4-36.5-0.8 0.1-0.7 8.3-12.1 18.2-25.4 13.5-18 18.2-23.7 19.1-22.9z"/>
		<path id="Path 4" class="s3" d="m0 117h32v15h66v-15h103v84h-201v-42z"/>
		<path id="Path 5" class="s4" d="m71.1 116.5c0.5 0.3 0.7 1 0.4 1.5-0.3 0.5-0.9 0.8-1.5 0.5-0.5-0.3-0.7-1-0.4-1.5 0.3-0.6 1-0.8 1.5-0.5z"/>
		<path id="Path 6" class="s5" d="m156.5 15.4c4.1 0.4 5.6 1.1 8.5 4 3.2 3.3 3.5 4.1 3.5 9.6 0 5.6-0.3 6.2-3.8 9.7-3.5 3.5-4.1 3.8-9.7 3.8-5.6 0-6.2-0.3-9.7-3.8-3.5-3.5-3.8-4.1-3.8-9.7 0-5.1 0.4-6.3 2.9-9.1 1.5-1.8 3.8-3.6 5-4 1.1-0.5 4.3-0.7 7.1-0.5z"/>
	</g>
</svg>